<?xml version="1.0" encoding="UTF-8" standalone="no"?>
<!DOCTYPE svg PUBLIC "-//W3C//DTD SVG 1.1//EN"
 "http://www.w3.org/Graphics/SVG/1.1/DTD/svg11.dtd">
<!-- Generated by graphviz version 2.31.0 (20130119.1422)
 -->
<!-- Title: programming&#45;languages Pages: 1 -->
<svg width="1711pt" height="1170pt"
 viewBox="0.00 0.00 1711.00 1170.00" xmlns="http://www.w3.org/2000/svg" xmlns:xlink="http://www.w3.org/1999/xlink">
<g id="e" class="layer">
<g id="graph0" class="graph" transform="scale(1 1) rotate(0) translate(4 1166)">
<title>programming&#45;languages</title>
<polygon fill="white" stroke="white" points="-4,5 -4,-1166 1708,-1166 1708,5 -4,5"/>
<text text-anchor="middle" x="851.5" y="-1145.2" font-family="Helvetica Bold" font-size="16.00">High&#45;Level Multi&#45;Paradigm Programming Languages which are Procedural and Object&#45;Orientated</text>
<!-- class&#45;&gt;cpp -->
<g id="edge1" class="edge"><title>class&#45;&gt;cpp</title>
<path fill="none" stroke="#bb4444" stroke-width="2" d="M653.477,-602.66C662.246,-645.833 678.806,-727.356 689.785,-781.404"/>
</g>
<!-- class&#45;&gt;csharp -->
<g id="edge2" class="edge"><title>class&#45;&gt;csharp</title>
<path fill="none" stroke="#bb4444" stroke-width="2" d="M599.204,-544.16C579.047,-531.955 555.453,-517.667 534.316,-504.867"/>
</g>
<!-- class&#45;&gt;delphi -->
<g id="edge3" class="edge"><title>class&#45;&gt;delphi</title>
<path fill="none" stroke="#bb4444" stroke-width="2" d="M635.029,-602.61C614.182,-651.234 572.041,-749.523 545.806,-810.714"/>
</g>
<!-- class&#45;&gt;java -->
<g id="edge4" class="edge"><title>class&#45;&gt;java</title>
<path fill="none" stroke="#bb4444" stroke-width="2" d="M593.214,-559.326C540.367,-545.606 460.326,-524.825 406.09,-510.744"/>
</g>
<!-- class&#45;&gt;perl -->
<g id="edge5" class="edge"><title>class&#45;&gt;perl</title>
<path fill="none" stroke="#bb4444" stroke-width="2" d="M701.653,-573.377C749.341,-573.33 818.663,-573.262 867.7,-573.213"/>
</g>
<!-- class&#45;&gt;php -->
<g id="edge6" class="edge"><title>class&#45;&gt;php</title>
<path fill="none" stroke="#bb4444" stroke-width="2" d="M701.647,-600.125C751.531,-624.736 825.39,-661.175 876.642,-686.462"/>
</g>
<!-- class&#45;&gt;python -->
<g id="edge7" class="edge"><title>class&#45;&gt;python</title>
<path fill="none" stroke="#bb4444" stroke-width="2" d="M656.089,-544.303C671.504,-491.785 704.162,-380.522 723.664,-314.08"/>
</g>
<!-- class&#45;&gt;ruby -->
<g id="edge8" class="edge"><title>class&#45;&gt;ruby</title>
<path fill="none" stroke="#bb4444" stroke-width="2" d="M642.572,-544.2C635.143,-500.48 621.021,-417.369 611.741,-362.753"/>
</g>
<!-- class&#45;&gt;tcl -->
<g id="edge9" class="edge"><title>class&#45;&gt;tcl</title>
<path fill="none" stroke="#bb4444" stroke-width="2" d="M684.735,-602.63C701.615,-615.882 721.986,-631.875 740.857,-646.689"/>
</g>
<!-- aspect&#45;&gt;python -->
<g id="edge10" class="edge"><title>aspect&#45;&gt;python</title>
<path fill="none" stroke="#bb4444" stroke-width="2" d="M665.035,-58.3069C678.754,-95.7228 702.719,-161.084 719.71,-207.426"/>
</g>
<!-- aspect&#45;&gt;ruby -->
<g id="edge11" class="edge"><title>aspect&#45;&gt;ruby</title>
<path fill="none" stroke="#bb4444" stroke-width="2" d="M648.897,-58.1896C640.286,-105.101 623.262,-197.842 612.466,-256.656"/>
</g>
<!-- prototype&#45;&gt;javascript -->
<g id="edge12" class="edge"><title>prototype&#45;&gt;javascript</title>
<path fill="none" stroke="#bb4444" stroke-width="2" d="M1594.97,-970.994C1557.14,-954.88 1506.65,-933.372 1467.88,-916.859"/>
</g>
<!-- compiled&#45;&gt;cpp -->
<g id="edge13" class="edge"><title>compiled&#45;&gt;cpp</title>
<path fill="none" stroke="#44bb44" stroke-width="2" d="M603.446,-1059.23C621.471,-1017.62 654.933,-940.388 677.496,-888.31"/>
</g>
<!-- compiled&#45;&gt;delphi -->
<g id="edge14" class="edge"><title>compiled&#45;&gt;delphi</title>
<path fill="none" stroke="#44bb44" stroke-width="2" d="M581.982,-1058.96C571.135,-1023.08 552.567,-961.657 539.16,-917.307"/>
</g>
<!-- interpreted&#45;&gt;javascript -->
<g id="edge19" class="edge"><title>interpreted&#45;&gt;javascript</title>
<path fill="none" stroke="#44bb44" stroke-width="2" d="M1184.32,-793.379C1232.06,-814.285 1301.45,-844.674 1350.54,-866.171"/>
</g>
<!-- interpreted&#45;&gt;perl -->
<g id="edge20" class="edge"><title>interpreted&#45;&gt;perl</title>
<path fill="none" stroke="#44bb44" stroke-width="2" d="M1099.66,-740.239C1068.59,-710.26 1019.71,-663.101 981.791,-626.518"/>
</g>
<!-- interpreted&#45;&gt;php -->
<g id="edge21" class="edge"><title>interpreted&#45;&gt;php</title>
<path fill="none" stroke="#44bb44" stroke-width="2" d="M1076.11,-754.603C1050.53,-747.478 1019.94,-738.956 993.801,-731.676"/>
</g>
<!-- interpreted&#45;&gt;tcl -->
<g id="edge22" class="edge"><title>interpreted&#45;&gt;tcl</title>
<path fill="none" stroke="#44bb44" stroke-width="2" d="M1075.94,-757.051C1016.04,-743.124 919.931,-720.777 858.295,-706.446"/>
</g>
<!-- bytecode&#45;&gt;csharp -->
<g id="edge15" class="edge"><title>bytecode&#45;&gt;csharp</title>
<path fill="none" stroke="#44bb44" stroke-width="2" d="M438.976,-272.006C445.727,-308.326 457.394,-371.087 465.759,-416.085"/>
</g>
<!-- bytecode&#45;&gt;java -->
<g id="edge16" class="edge"><title>bytecode&#45;&gt;java</title>
<path fill="none" stroke="#44bb44" stroke-width="2" d="M423.524,-272.341C409.345,-314.001 383.215,-390.776 365.611,-442.499"/>
</g>
<!-- bytecode&#45;&gt;python -->
<g id="edge17" class="edge"><title>bytecode&#45;&gt;python</title>
<path fill="none" stroke="#44bb44" stroke-width="2" d="M487.865,-246.053C542.003,-249.236 624.891,-254.109 680.54,-257.381"/>
</g>
<!-- bytecode&#45;&gt;ruby -->
<g id="edge18" class="edge"><title>bytecode&#45;&gt;ruby</title>
<path fill="none" stroke="#44bb44" stroke-width="2" d="M488.015,-264.379C505.884,-271.44 525.817,-279.316 543.988,-286.497"/>
</g>
<!-- generic&#45;&gt;cpp -->
<g id="edge23" class="edge"><title>generic&#45;&gt;cpp</title>
<path fill="none" stroke="#4444bb" stroke-width="2" d="M607.098,-680.569C623.505,-707.632 648.367,-748.641 668.337,-781.582"/>
</g>
<!-- generic&#45;&gt;csharp -->
<g id="edge24" class="edge"><title>generic&#45;&gt;csharp</title>
<path fill="none" stroke="#4444bb" stroke-width="2" d="M571.196,-622.246C554.417,-595.393 529.157,-554.966 508.825,-522.426"/>
</g>
<!-- generic&#45;&gt;delphi -->
<g id="edge25" class="edge"><title>generic&#45;&gt;delphi</title>
<path fill="none" stroke="#4444bb" stroke-width="2" d="M580.38,-680.598C569.926,-713.996 552.562,-769.473 539.67,-810.66"/>
</g>
<!-- generic&#45;&gt;java -->
<g id="edge26" class="edge"><title>generic&#45;&gt;java</title>
<path fill="none" stroke="#4444bb" stroke-width="2" d="M544.263,-622.362C505.285,-597.233 448.751,-560.787 406.283,-533.408"/>
</g>
<!-- generic&#45;&gt;perl -->
<g id="edge27" class="edge"><title>generic&#45;&gt;perl</title>
<path fill="none" stroke="#4444bb" stroke-width="2" d="M643.628,-638.925C705.027,-624.648 804.782,-601.453 867.943,-586.767"/>
</g>
<!-- eventdriven&#45;&gt;csharp -->
<g id="edge28" class="edge"><title>eventdriven&#45;&gt;csharp</title>
<path fill="none" stroke="#bb44bb" stroke-width="2" d="M490.514,-703.055C487.749,-659.549 482.496,-576.903 479.036,-522.467"/>
</g>
<!-- eventdriven&#45;&gt;delphi -->
<g id="edge29" class="edge"><title>eventdriven&#45;&gt;delphi</title>
<path fill="none" stroke="#bb44bb" stroke-width="2" d="M499.167,-761.415C502.535,-775.889 506.708,-793.824 510.617,-810.623"/>
</g>
<!-- eventdriven&#45;&gt;tcl -->
<g id="edge30" class="edge"><title>eventdriven&#45;&gt;tcl</title>
<path fill="none" stroke="#bb44bb" stroke-width="2" d="M546.584,-725.236C601.104,-718.245 684.9,-707.501 740.943,-700.315"/>
</g>
<!-- iterative&#45;&gt;csharp -->
<g id="edge31" class="edge"><title>iterative&#45;&gt;csharp</title>
<path fill="none" stroke="#bbbb44" stroke-width="2" d="M660.152,-433.781C622.609,-441.019 572.65,-450.65 534.189,-458.064"/>
</g>
<!-- iterative&#45;&gt;python -->
<g id="edge32" class="edge"><title>iterative&#45;&gt;python</title>
<path fill="none" stroke="#bbbb44" stroke-width="2" d="M718.771,-394.289C722.197,-372.013 727.018,-340.66 731.127,-313.94"/>
</g>
<!-- iterative&#45;&gt;ruby -->
<g id="edge33" class="edge"><title>iterative&#45;&gt;ruby</title>
<path fill="none" stroke="#bbbb44" stroke-width="2" d="M685.57,-394.078C676.272,-384.609 665.651,-373.792 655.187,-363.135"/>
</g>
<!-- iterative&#45;&gt;tcl -->
<g id="edge34" class="edge"><title>iterative&#45;&gt;tcl</title>
<path fill="none" stroke="#bbbb44" stroke-width="2" d="M723.512,-452.434C737.682,-497.206 765.054,-583.686 782.811,-639.786"/>
</g>
<!-- metaprogramming&#45;&gt;cpp -->
<g id="edge35" class="edge"><title>metaprogramming&#45;&gt;cpp</title>
<path fill="none" stroke="#44bbbb" stroke-width="2" d="M769.544,-556.874C756.758,-608.466 729.986,-716.49 713.838,-781.648"/>
</g>
<!-- metaprogramming&#45;&gt;perl -->
<g id="edge36" class="edge"><title>metaprogramming&#45;&gt;perl</title>
<path fill="none" stroke="#44bbbb" stroke-width="2" d="M830.822,-544.11C842.883,-547.772 855.726,-551.671 867.958,-555.385"/>
</g>
<!-- metaprogramming&#45;&gt;php -->
<g id="edge37" class="edge"><title>metaprogramming&#45;&gt;php</title>
<path fill="none" stroke="#44bbbb" stroke-width="2" d="M801.53,-557.02C825.202,-585.059 861.45,-627.993 890.23,-662.082"/>
</g>
<!-- metaprogramming&#45;&gt;python -->
<g id="edge38" class="edge"><title>metaprogramming&#45;&gt;python</title>
<path fill="none" stroke="#44bbbb" stroke-width="2" d="M772.692,-498.632C766.479,-454.39 754.549,-369.452 746.758,-313.982"/>
</g>
<!-- metaprogramming&#45;&gt;ruby -->
<g id="edge39" class="edge"><title>metaprogramming&#45;&gt;ruby</title>
<path fill="none" stroke="#44bbbb" stroke-width="2" d="M753.302,-498.299C725.651,-463.667 679.179,-405.462 645.161,-362.855"/>
</g>
<!-- metaprogramming&#45;&gt;tcl -->
<g id="edge40" class="edge"><title>metaprogramming&#45;&gt;tcl</title>
<path fill="none" stroke="#44bbbb" stroke-width="2" d="M780.801,-556.835C783.961,-579.7 788.444,-612.146 792.239,-639.608"/>
</g>
<!-- interactive&#45;&gt;perl -->
<g id="edge41" class="edge"><title>interactive&#45;&gt;perl</title>
<path fill="none" stroke="#bbbbbb" stroke-width="2" d="M892.436,-414.576C898.465,-442.658 907.697,-485.658 915.027,-519.801"/>
</g>
<!-- interactive&#45;&gt;python -->
<g id="edge42" class="edge"><title>interactive&#45;&gt;python</title>
<path fill="none" stroke="#bbbbbb" stroke-width="2" d="M851.705,-356.049C835.683,-342.479 816.173,-325.953 797.932,-310.503"/>
</g>
<!-- interactive&#45;&gt;ruby -->
<g id="edge43" class="edge"><title>interactive&#45;&gt;ruby</title>
<path fill="none" stroke="#bbbbbb" stroke-width="2" d="M831.824,-370.741C782.963,-357.724 711.359,-338.648 661.245,-325.297"/>
</g>
<!-- interactive&#45;&gt;tcl -->
<g id="edge44" class="edge"><title>interactive&#45;&gt;tcl</title>
<path fill="none" stroke="#bbbbbb" stroke-width="2" d="M877.912,-414.424C863.356,-466.16 832.854,-574.567 814.505,-639.781"/>
</g>
<!-- concurrent&#45;&gt;java -->
<g id="edge45" class="edge"><title>concurrent&#45;&gt;java</title>
<path fill="none" stroke="#444444" stroke-width="2" d="M108.198,-475.723C159.469,-479.97 236.218,-486.326 288.908,-490.69"/>
</g>
</g>
</g>
<g id="n" class="layer">
<g id="n_graph0" class="graph" transform="scale(1 1) rotate(0) translate(4 1166)">
<title>programming&#45;languages</title>
<polygon fill="white" stroke="white" points="-4,5 -4,-1166 1708,-1166 1708,5 -4,5"/>
<text text-anchor="middle" x="851.5" y="-1145.2" font-family="Helvetica Bold" font-size="16.00">High&#45;Level Multi&#45;Paradigm Programming Languages which are Procedural and Object&#45;Orientated</text>
<!-- class -->
<g id="n_node1_n" class="node"><title>class</title>
<polygon fill="#bb4444" stroke="#bb4444" points="701.539,-602.43 593.539,-602.43 593.539,-544.43 701.539,-544.43 701.539,-602.43"/>
<text text-anchor="middle" x="647.539" y="-576.43" font-family="Helvetica Bold" font-size="10.00" fill="white">class&#45;based</text>
<text text-anchor="middle" x="647.539" y="-565.43" font-family="Helvetica Bold" font-size="10.00" fill="white">language</text>
</g>
<!-- cpp -->
<g id="n_node4_n" class="node"><title>cpp</title>
<path fill="#d3a950" stroke="#d3a950" d="M747.146,-887.876C747.146,-887.876 654.146,-887.876 654.146,-887.876 648.146,-887.876 642.146,-881.876 642.146,-875.876 642.146,-875.876 642.146,-793.876 642.146,-793.876 642.146,-787.876 648.146,-781.876 654.146,-781.876 654.146,-781.876 747.146,-781.876 747.146,-781.876 753.146,-781.876 759.146,-787.876 759.146,-793.876 759.146,-793.876 759.146,-875.876 759.146,-875.876 759.146,-881.876 753.146,-887.876 747.146,-887.876"/>
<text text-anchor="middle" x="700.646" y="-865.376" font-family="Helvetica Bold" font-size="10.00" fill="white">C++</text>
<text text-anchor="start" x="650.146" y="-854.376" font-family="Helvetica Bold" font-size="10.00" fill="white">strong</text>
<text text-anchor="start" x="650.146" y="-843.376" font-family="Helvetica Bold" font-size="10.00" fill="white">unsafe</text>
<text text-anchor="start" x="650.146" y="-832.376" font-family="Helvetica Bold" font-size="10.00" fill="white">explicit</text>
<text text-anchor="start" x="650.146" y="-821.376" font-family="Helvetica Bold" font-size="10.00" fill="white">static </text>
<text text-anchor="start" x="650.146" y="-810.376" font-family="Helvetica Bold" font-size="10.00" fill="white">name&#45;based &#160;&#160;&#160;</text>
<text text-anchor="start" x="650.146" y="-799.376" font-family="Helvetica Bold" font-size="10.00" fill="white">unsafe I/O</text>
</g>
<!-- csharp -->
<g id="n_node5_n" class="node"><title>csharp</title>
<path fill="#d3a950" stroke="#d3a950" d="M522.16,-522.347C522.16,-522.347 429.16,-522.347 429.16,-522.347 423.16,-522.347 417.16,-516.347 417.16,-510.347 417.16,-510.347 417.16,-428.347 417.16,-428.347 417.16,-422.347 423.16,-416.347 429.16,-416.347 429.16,-416.347 522.16,-416.347 522.16,-416.347 528.16,-416.347 534.16,-422.347 534.16,-428.347 534.16,-428.347 534.16,-510.347 534.16,-510.347 534.16,-516.347 528.16,-522.347 522.16,-522.347"/>
<text text-anchor="middle" x="475.66" y="-499.847" font-family="Helvetica Bold" font-size="10.00" fill="white">C#</text>
<text text-anchor="start" x="425.16" y="-488.847" font-family="Helvetica Bold" font-size="10.00" fill="white">strong</text>
<text text-anchor="start" x="425.16" y="-477.847" font-family="Helvetica Bold" font-size="10.00" fill="white">safe &#160;</text>
<text text-anchor="start" x="425.16" y="-466.847" font-family="Helvetica Bold" font-size="10.00" fill="white">explicit</text>
<text text-anchor="start" x="425.16" y="-455.847" font-family="Helvetica Bold" font-size="10.00" fill="white">static </text>
<text text-anchor="start" x="425.16" y="-444.847" font-family="Helvetica Bold" font-size="10.00" fill="white">name&#45;based &#160;&#160;&#160;</text>
<text text-anchor="start" x="425.16" y="-433.847" font-family="Helvetica Bold" font-size="10.00" fill="white">failsafe I/O</text>
</g>
<!-- delphi -->
<g id="n_node6_n" class="node"><title>delphi</title>
<path fill="#d3a950" stroke="#d3a950" d="M569.51,-916.883C569.51,-916.883 476.51,-916.883 476.51,-916.883 470.51,-916.883 464.51,-910.883 464.51,-904.883 464.51,-904.883 464.51,-822.883 464.51,-822.883 464.51,-816.883 470.51,-810.883 476.51,-810.883 476.51,-810.883 569.51,-810.883 569.51,-810.883 575.51,-810.883 581.51,-816.883 581.51,-822.883 581.51,-822.883 581.51,-904.883 581.51,-904.883 581.51,-910.883 575.51,-916.883 569.51,-916.883"/>
<text text-anchor="middle" x="523.01" y="-894.383" font-family="Helvetica Bold" font-size="10.00" fill="white">Delphi</text>
<text text-anchor="start" x="472.51" y="-883.383" font-family="Helvetica Bold" font-size="10.00" fill="white">strong</text>
<text text-anchor="start" x="472.51" y="-872.383" font-family="Helvetica Bold" font-size="10.00" fill="white">unsafe</text>
<text text-anchor="start" x="472.51" y="-861.383" font-family="Helvetica Bold" font-size="10.00" fill="white">explicit</text>
<text text-anchor="start" x="472.51" y="-850.383" font-family="Helvetica Bold" font-size="10.00" fill="white">static </text>
<text text-anchor="start" x="472.51" y="-839.383" font-family="Helvetica Bold" font-size="10.00" fill="white">name&#45;based &#160;&#160;&#160;</text>
<text text-anchor="start" x="472.51" y="-828.383" font-family="Helvetica Bold" font-size="10.00" fill="white">unsafe I/O</text>
</g>
<!-- java -->
<g id="n_node7_n" class="node"><title>java</title>
<path fill="#d3a950" stroke="#d3a950" d="M394.056,-548.547C394.056,-548.547 301.056,-548.547 301.056,-548.547 295.056,-548.547 289.056,-542.547 289.056,-536.547 289.056,-536.547 289.056,-454.547 289.056,-454.547 289.056,-448.547 295.056,-442.547 301.056,-442.547 301.056,-442.547 394.056,-442.547 394.056,-442.547 400.056,-442.547 406.056,-448.547 406.056,-454.547 406.056,-454.547 406.056,-536.547 406.056,-536.547 406.056,-542.547 400.056,-548.547 394.056,-548.547"/>
<text text-anchor="middle" x="347.556" y="-526.047" font-family="Helvetica Bold" font-size="10.00" fill="white">Java</text>
<text text-anchor="start" x="297.056" y="-515.047" font-family="Helvetica Bold" font-size="10.00" fill="white">strong</text>
<text text-anchor="start" x="297.056" y="-504.047" font-family="Helvetica Bold" font-size="10.00" fill="white">safe &#160;</text>
<text text-anchor="start" x="297.056" y="-493.047" font-family="Helvetica Bold" font-size="10.00" fill="white">explicit</text>
<text text-anchor="start" x="297.056" y="-482.047" font-family="Helvetica Bold" font-size="10.00" fill="white">static </text>
<text text-anchor="start" x="297.056" y="-471.047" font-family="Helvetica Bold" font-size="10.00" fill="white">name&#45;based &#160;&#160;&#160;</text>
<text text-anchor="start" x="297.056" y="-460.047" font-family="Helvetica Bold" font-size="10.00" fill="white">failsafe I/O</text>
</g>
<!-- perl -->
<g id="n_node8_n" class="node"><title>perl</title>
<path fill="#d3a950" stroke="#d3a950" d="M972.981,-626.156C972.981,-626.156 879.981,-626.156 879.981,-626.156 873.981,-626.156 867.981,-620.156 867.981,-614.156 867.981,-614.156 867.981,-532.156 867.981,-532.156 867.981,-526.156 873.981,-520.156 879.981,-520.156 879.981,-520.156 972.981,-520.156 972.981,-520.156 978.981,-520.156 984.981,-526.156 984.981,-532.156 984.981,-532.156 984.981,-614.156 984.981,-614.156 984.981,-620.156 978.981,-626.156 972.981,-626.156"/>
<text text-anchor="middle" x="926.481" y="-603.656" font-family="Helvetica Bold" font-size="10.00" fill="white">Perl</text>
<text text-anchor="start" x="875.981" y="-592.656" font-family="Helvetica Bold" font-size="10.00" fill="white">weak &#160;</text>
<text text-anchor="start" x="875.981" y="-581.656" font-family="Helvetica Bold" font-size="10.00" fill="white">unsafe</text>
<text text-anchor="start" x="875.981" y="-570.656" font-family="Helvetica Bold" font-size="10.00" fill="white">implicit</text>
<text text-anchor="start" x="875.981" y="-559.656" font-family="Helvetica Bold" font-size="10.00" fill="white">dynamic</text>
<text text-anchor="start" x="875.981" y="-548.656" font-family="Helvetica Bold" font-size="10.00" fill="white"> &#160;&#160;&#160;&#160;&#160;&#160;&#160;&#160;&#160;&#160;&#160;&#160;&#160;</text>
<text text-anchor="start" x="875.981" y="-537.656" font-family="Helvetica Bold" font-size="10.00" fill="white">unsafe I/O</text>
</g>
<!-- php -->
<g id="n_node9_n" class="node"><title>php</title>
<path fill="#d3a950" stroke="#d3a950" d="M981.707,-768.355C981.707,-768.355 888.707,-768.355 888.707,-768.355 882.707,-768.355 876.707,-762.355 876.707,-756.355 876.707,-756.355 876.707,-674.355 876.707,-674.355 876.707,-668.355 882.707,-662.355 888.707,-662.355 888.707,-662.355 981.707,-662.355 981.707,-662.355 987.707,-662.355 993.707,-668.355 993.707,-674.355 993.707,-674.355 993.707,-756.355 993.707,-756.355 993.707,-762.355 987.707,-768.355 981.707,-768.355"/>
<text text-anchor="middle" x="935.207" y="-745.855" font-family="Helvetica Bold" font-size="10.00" fill="white">PHP</text>
<text text-anchor="start" x="884.707" y="-734.855" font-family="Helvetica Bold" font-size="10.00" fill="white">weak &#160;</text>
<text text-anchor="start" x="884.707" y="-723.855" font-family="Helvetica Bold" font-size="10.00" fill="white">unsafe</text>
<text text-anchor="start" x="884.707" y="-712.855" font-family="Helvetica Bold" font-size="10.00" fill="white">implicit</text>
<text text-anchor="start" x="884.707" y="-701.855" font-family="Helvetica Bold" font-size="10.00" fill="white">dynamic</text>
<text text-anchor="start" x="884.707" y="-690.855" font-family="Helvetica Bold" font-size="10.00" fill="white"> &#160;&#160;&#160;&#160;&#160;&#160;&#160;&#160;&#160;&#160;&#160;&#160;&#160;</text>
<text text-anchor="start" x="884.707" y="-679.855" font-family="Helvetica Bold" font-size="10.00" fill="white">failsafe I/O</text>
</g>
<!-- python -->
<g id="n_node10_n" class="node"><title>python</title>
<path fill="#d3a950" stroke="#d3a950" d="M785.793,-313.835C785.793,-313.835 692.793,-313.835 692.793,-313.835 686.793,-313.835 680.793,-307.835 680.793,-301.835 680.793,-301.835 680.793,-219.835 680.793,-219.835 680.793,-213.835 686.793,-207.835 692.793,-207.835 692.793,-207.835 785.793,-207.835 785.793,-207.835 791.793,-207.835 797.793,-213.835 797.793,-219.835 797.793,-219.835 797.793,-301.835 797.793,-301.835 797.793,-307.835 791.793,-313.835 785.793,-313.835"/>
<text text-anchor="middle" x="739.293" y="-291.335" font-family="Helvetica Bold" font-size="10.00" fill="white">Python</text>
<text text-anchor="start" x="688.793" y="-280.335" font-family="Helvetica Bold" font-size="10.00" fill="white">strong</text>
<text text-anchor="start" x="688.793" y="-269.335" font-family="Helvetica Bold" font-size="10.00" fill="white">safe &#160;</text>
<text text-anchor="start" x="688.793" y="-258.335" font-family="Helvetica Bold" font-size="10.00" fill="white">implicit</text>
<text text-anchor="start" x="688.793" y="-247.335" font-family="Helvetica Bold" font-size="10.00" fill="white">dynamic</text>
<text text-anchor="start" x="688.793" y="-236.335" font-family="Helvetica Bold" font-size="10.00" fill="white">property&#45;based</text>
<text text-anchor="start" x="688.793" y="-225.335" font-family="Helvetica Bold" font-size="10.00" fill="white">failsafe I/O</text>
</g>
<!-- ruby -->
<g id="n_node11_n" class="node"><title>ruby</title>
<path fill="#d3a950" stroke="#d3a950" d="M649.227,-362.707C649.227,-362.707 556.227,-362.707 556.227,-362.707 550.227,-362.707 544.227,-356.707 544.227,-350.707 544.227,-350.707 544.227,-268.707 544.227,-268.707 544.227,-262.707 550.227,-256.707 556.227,-256.707 556.227,-256.707 649.227,-256.707 649.227,-256.707 655.227,-256.707 661.227,-262.707 661.227,-268.707 661.227,-268.707 661.227,-350.707 661.227,-350.707 661.227,-356.707 655.227,-362.707 649.227,-362.707"/>
<text text-anchor="middle" x="602.727" y="-340.207" font-family="Helvetica Bold" font-size="10.00" fill="white">Ruby</text>
<text text-anchor="start" x="552.227" y="-329.207" font-family="Helvetica Bold" font-size="10.00" fill="white">strong</text>
<text text-anchor="start" x="552.227" y="-318.207" font-family="Helvetica Bold" font-size="10.00" fill="white">safe &#160;</text>
<text text-anchor="start" x="552.227" y="-307.207" font-family="Helvetica Bold" font-size="10.00" fill="white">implicit</text>
<text text-anchor="start" x="552.227" y="-296.207" font-family="Helvetica Bold" font-size="10.00" fill="white">dynamic</text>
<text text-anchor="start" x="552.227" y="-285.207" font-family="Helvetica Bold" font-size="10.00" fill="white"> &#160;&#160;&#160;&#160;&#160;&#160;&#160;&#160;&#160;&#160;&#160;&#160;&#160;</text>
<text text-anchor="start" x="552.227" y="-274.207" font-family="Helvetica Bold" font-size="10.00" fill="white">failsafe I/O</text>
</g>
<!-- tcl -->
<g id="n_node12_n" class="node"><title>tcl</title>
<path fill="#d3a950" stroke="#d3a950" d="M846.089,-745.796C846.089,-745.796 753.089,-745.796 753.089,-745.796 747.089,-745.796 741.089,-739.796 741.089,-733.796 741.089,-733.796 741.089,-651.796 741.089,-651.796 741.089,-645.796 747.089,-639.796 753.089,-639.796 753.089,-639.796 846.089,-639.796 846.089,-639.796 852.089,-639.796 858.089,-645.796 858.089,-651.796 858.089,-651.796 858.089,-733.796 858.089,-733.796 858.089,-739.796 852.089,-745.796 846.089,-745.796"/>
<text text-anchor="middle" x="799.589" y="-723.296" font-family="Helvetica Bold" font-size="10.00" fill="white">Tcl</text>
<text text-anchor="start" x="749.089" y="-712.296" font-family="Helvetica Bold" font-size="10.00" fill="white">weak &#160;</text>
<text text-anchor="start" x="749.089" y="-701.296" font-family="Helvetica Bold" font-size="10.00" fill="white">unsafe</text>
<text text-anchor="start" x="749.089" y="-690.296" font-family="Helvetica Bold" font-size="10.00" fill="white">implicit</text>
<text text-anchor="start" x="749.089" y="-679.296" font-family="Helvetica Bold" font-size="10.00" fill="white">dynamic</text>
<text text-anchor="start" x="749.089" y="-668.296" font-family="Helvetica Bold" font-size="10.00" fill="white"> &#160;&#160;&#160;&#160;&#160;&#160;&#160;&#160;&#160;&#160;&#160;&#160;&#160;</text>
<text text-anchor="start" x="749.089" y="-657.296" font-family="Helvetica Bold" font-size="10.00" fill="white">unsafe I/O</text>
</g>
<!-- aspect -->
<g id="n_node2_n" class="node"><title>aspect</title>
<polygon fill="#bb4444" stroke="#bb4444" points="708.267,-57.9369 600.267,-57.9369 600.267,0.0631475 708.267,0.0631475 708.267,-57.9369"/>
<text text-anchor="middle" x="654.267" y="-31.9369" font-family="Helvetica Bold" font-size="10.00" fill="white">aspect&#45;oriented</text>
<text text-anchor="middle" x="654.267" y="-20.9369" font-family="Helvetica Bold" font-size="10.00" fill="white">language</text>
</g>
<!-- prototype -->
<g id="n_node3_n" class="node"><title>prototype</title>
<polygon fill="#bb4444" stroke="#bb4444" points="1703.06,-1023.03 1595.06,-1023.03 1595.06,-965.034 1703.06,-965.034 1703.06,-1023.03"/>
<text text-anchor="middle" x="1649.06" y="-997.034" font-family="Helvetica Bold" font-size="10.00" fill="white">prototype&#45;based</text>
<text text-anchor="middle" x="1649.06" y="-986.034" font-family="Helvetica Bold" font-size="10.00" fill="white">language</text>
</g>
<!-- javascript -->
<g id="n_node13_n" class="node"><title>javascript</title>
<path fill="#d3a950" stroke="#d3a950" d="M1455.88,-944.94C1455.88,-944.94 1362.88,-944.94 1362.88,-944.94 1356.88,-944.94 1350.88,-938.94 1350.88,-932.94 1350.88,-932.94 1350.88,-850.94 1350.88,-850.94 1350.88,-844.94 1356.88,-838.94 1362.88,-838.94 1362.88,-838.94 1455.88,-838.94 1455.88,-838.94 1461.88,-838.94 1467.88,-844.94 1467.88,-850.94 1467.88,-850.94 1467.88,-932.94 1467.88,-932.94 1467.88,-938.94 1461.88,-944.94 1455.88,-944.94"/>
<text text-anchor="middle" x="1409.38" y="-922.44" font-family="Helvetica Bold" font-size="10.00" fill="white">JavaScript</text>
<text text-anchor="start" x="1358.88" y="-911.44" font-family="Helvetica Bold" font-size="10.00" fill="white">weak &#160;</text>
<text text-anchor="start" x="1358.88" y="-900.44" font-family="Helvetica Bold" font-size="10.00" fill="white">unsafe</text>
<text text-anchor="start" x="1358.88" y="-889.44" font-family="Helvetica Bold" font-size="10.00" fill="white">implicit</text>
<text text-anchor="start" x="1358.88" y="-878.44" font-family="Helvetica Bold" font-size="10.00" fill="white">dynamic</text>
<text text-anchor="start" x="1358.88" y="-867.44" font-family="Helvetica Bold" font-size="10.00" fill="white"> &#160;&#160;&#160;&#160;&#160;&#160;&#160;&#160;&#160;&#160;&#160;&#160;&#160;</text>
<text text-anchor="start" x="1358.88" y="-856.44" font-family="Helvetica Bold" font-size="10.00" fill="white">unsafe I/O</text>
</g>
<!-- compiled -->
<g id="n_node14_n" class="node"><title>compiled</title>
<polygon fill="#44bb44" stroke="#44bb44" points="644.851,-1117.3 536.851,-1117.3 536.851,-1059.3 644.851,-1059.3 644.851,-1117.3"/>
<text text-anchor="middle" x="590.851" y="-1091.3" font-family="Helvetica Bold" font-size="10.00" fill="white">compiled</text>
<text text-anchor="middle" x="590.851" y="-1080.3" font-family="Helvetica Bold" font-size="10.00" fill="white">language</text>
</g>
<!-- interpreted -->
<g id="n_node15_n" class="node"><title>interpreted</title>
<polygon fill="#44bb44" stroke="#44bb44" points="1184.15,-798.657 1076.15,-798.657 1076.15,-740.657 1184.15,-740.657 1184.15,-798.657"/>
<text text-anchor="middle" x="1130.15" y="-772.657" font-family="Helvetica Bold" font-size="10.00" fill="white">interpreted</text>
<text text-anchor="middle" x="1130.15" y="-761.657" font-family="Helvetica Bold" font-size="10.00" fill="white">language</text>
</g>
<!-- bytecode -->
<g id="n_node16_n" class="node"><title>bytecode</title>
<polygon fill="#44bb44" stroke="#44bb44" points="487.558,-271.86 379.558,-271.86 379.558,-213.86 487.558,-213.86 487.558,-271.86"/>
<text text-anchor="middle" x="433.558" y="-245.86" font-family="Helvetica Bold" font-size="10.00" fill="white">bytecode</text>
<text text-anchor="middle" x="433.558" y="-234.86" font-family="Helvetica Bold" font-size="10.00" fill="white">language</text>
</g>
<!-- generic -->
<g id="n_node17_n" class="node"><title>generic</title>
<polygon fill="#4444bb" stroke="#4444bb" points="643.484,-680.515 535.484,-680.515 535.484,-622.515 643.484,-622.515 643.484,-680.515"/>
<text text-anchor="middle" x="589.484" y="-654.515" font-family="Helvetica Bold" font-size="10.00" fill="white">generic</text>
<text text-anchor="middle" x="589.484" y="-643.515" font-family="Helvetica Bold" font-size="10.00" fill="white">language</text>
</g>
<!-- eventdriven -->
<g id="n_node18_n" class="node"><title>eventdriven</title>
<polygon fill="#bb44bb" stroke="#bb44bb" points="546.366,-761.188 438.366,-761.188 438.366,-703.188 546.366,-703.188 546.366,-761.188"/>
<text text-anchor="middle" x="492.366" y="-735.188" font-family="Helvetica Bold" font-size="10.00" fill="white">event&#45;driven</text>
<text text-anchor="middle" x="492.366" y="-724.188" font-family="Helvetica Bold" font-size="10.00" fill="white">language</text>
</g>
<!-- iterative -->
<g id="n_node19_n" class="node"><title>iterative</title>
<polygon fill="#bbbb44" stroke="#bbbb44" points="768.304,-452.342 660.304,-452.342 660.304,-394.342 768.304,-394.342 768.304,-452.342"/>
<text text-anchor="middle" x="714.304" y="-426.342" font-family="Helvetica Bold" font-size="10.00" fill="white">iterative</text>
<text text-anchor="middle" x="714.304" y="-415.342" font-family="Helvetica Bold" font-size="10.00" fill="white">language</text>
</g>
<!-- metaprogramming -->
<g id="n_node20_n" class="node"><title>metaprogramming</title>
<polygon fill="#44bbbb" stroke="#44bbbb" points="830.775,-556.699 722.775,-556.699 722.775,-498.699 830.775,-498.699 830.775,-556.699"/>
<text text-anchor="middle" x="776.775" y="-530.699" font-family="Helvetica Bold" font-size="10.00" fill="white">metaprogramming</text>
<text text-anchor="middle" x="776.775" y="-519.699" font-family="Helvetica Bold" font-size="10.00" fill="white">language</text>
</g>
<!-- interactive -->
<g id="n_node21_n" class="node"><title>interactive</title>
<polygon fill="#bbbbbb" stroke="#bbbbbb" points="940.132,-414.21 832.132,-414.21 832.132,-356.21 940.132,-356.21 940.132,-414.21"/>
<text text-anchor="middle" x="886.132" y="-388.21" font-family="Helvetica Bold" font-size="10.00" fill="white">interactive</text>
<text text-anchor="middle" x="886.132" y="-377.21" font-family="Helvetica Bold" font-size="10.00" fill="white">language</text>
</g>
<!-- concurrent -->
<g id="n_node22_n" class="node"><title>concurrent</title>
<polygon fill="#444444" stroke="#444444" points="108.016,-500.236 0.0162789,-500.236 0.0162789,-442.236 108.016,-442.236 108.016,-500.236"/>
<text text-anchor="middle" x="54.0163" y="-474.236" font-family="Helvetica Bold" font-size="10.00" fill="white">concurrent</text>
<text text-anchor="middle" x="54.0163" y="-463.236" font-family="Helvetica Bold" font-size="10.00" fill="white">language</text>
</g>
<!-- legend -->
<g id="n_node23_n" class="node"><title>legend</title>
<path fill="#d3a950" stroke="#d3a950" d="M1164.74,-317.641C1164.74,-317.641 1071.74,-317.641 1071.74,-317.641 1065.74,-317.641 1059.74,-311.641 1059.74,-305.641 1059.74,-305.641 1059.74,-223.641 1059.74,-223.641 1059.74,-217.641 1065.74,-211.641 1071.74,-211.641 1071.74,-211.641 1164.74,-211.641 1164.74,-211.641 1170.74,-211.641 1176.74,-217.641 1176.74,-223.641 1176.74,-223.641 1176.74,-305.641 1176.74,-305.641 1176.74,-311.641 1170.74,-317.641 1164.74,-317.641"/>
<text text-anchor="middle" x="1118.24" y="-295.141" font-family="Helvetica Bold Italic" font-size="10.00" fill="white">name</text>
<text text-anchor="start" x="1067.74" y="-284.141" font-family="Helvetica Bold Italic" font-size="10.00" fill="white">type strength</text>
<text text-anchor="start" x="1067.74" y="-273.141" font-family="Helvetica Bold Italic" font-size="10.00" fill="white">type safety</text>
<text text-anchor="start" x="1067.74" y="-262.141" font-family="Helvetica Bold Italic" font-size="10.00" fill="white">type expression</text>
<text text-anchor="start" x="1067.74" y="-251.141" font-family="Helvetica Bold Italic" font-size="10.00" fill="white">type checking</text>
<text text-anchor="start" x="1067.74" y="-240.141" font-family="Helvetica Bold Italic" font-size="10.00" fill="white">type compatibility</text>
<text text-anchor="start" x="1067.74" y="-229.141" font-family="Helvetica Bold Italic" font-size="10.00" fill="white">system call exception</text>
</g>
</g>
</g>
</svg>
